<mxfile host="app.diagrams.net" modified="2024-04-12T12:58:22.138Z" agent="Mozilla/5.0 (Windows NT 10.0; Win64; x64; rv:124.0) Gecko/20100101 Firefox/124.0" version="24.2.3" etag="_GRfHG6c63hZyQVfAP-m" type="github">
  <diagram name="Page-1" id="DR7H-mRKTq2VL1-C39o8">
    <mxGraphModel>
      <root>
        <mxCell id="0" />
        <mxCell id="1" parent="0" />
      </root>
    </mxGraphModel>
  </diagram>
</mxfile>
